<?xml version="1.0" encoding="utf-8"?>
<!-- Generator: Adobe Illustrator 26.2.1, SVG Export Plug-In . SVG Version: 6.00 Build 0)  -->
<svg version="1.1" id="Capa_1" xmlns="http://www.w3.org/2000/svg" xmlns:xlink="http://www.w3.org/1999/xlink" x="0px" y="0px"
	 viewBox="0 0 1080 1920" style="enable-background:new 0 0 1080 1920;" xml:space="preserve">
<g>
	<g transform="translate(0.000000,512.000000) scale(0.100000,-0.100000)">
		<path d="M7885.02-2780.24c-8.98-1.22-15.98-6.49-17.49-13.14l-0.27-1.22h-28.6H7810v-32.74v-32.67h40.06
			c43.46,0,41.91-0.03,45.36,0.84c0.84,0.22,2.32,0.72,3.29,1.09c5.32,2.11,9.05,5.66,10.7,10.17l0.59,1.56v26.34v26.34l-0.59,1.56
			c-1.65,4.52-5.38,8.06-10.7,10.17C7894.44-2780.24,7889.5-2779.61,7885.02-2780.24z M7893.32-2783.26
			c6.25-1.38,10.65-4.72,12.44-9.47l0.48-1.24l0.21-20.63l0.04-20.61l-0.75,0.78c-3.08,3.06-7.68,5.23-12.96,6.11
			c-1.97,0.31-6.43,0.31-8.44-0.02c-4.94-0.81-9.52-2.92-12.48-5.73l-1.19-1.12l0.21,20.59l0.06,20.63l0.46,1.24
			c1.91,5.14,7.43,8.88,14.53,9.84C7887.72-2782.65,7891.31-2782.83,7893.32-2783.26z M7828.28-2797.55
			c-0.23-0.16-14.52-6.73-14.64-6.73c-0.04,0-0.08,1.55-0.08,3.43v3.43h7.47C7825.38-2797.41,7828.41-2797.47,7828.28-2797.55z
			 M7847.85-2797.46c-0.04-0.03-7.47-3.26-16.51-7.2c-9.04-3.92-16.74-7.27-17.09-7.45l-0.69-0.31v2.48v2.47l10.94,5.03l10.92,5.03
			l6.26,0.02C7845.13-2797.4,7847.89-2797.43,7847.85-2797.46z M7867.17-2797.69c0-0.22-5.1-2.62-20.02-9.4l-20.04-9.1l-4.92,0.91
			c-2.7,0.5-5.04,0.95-5.21,1.01c-0.21,0.08-0.04,0.23,0.63,0.52c0.5,0.22,9.16,4,19.23,8.37l18.31,7.98h6.02
			C7866.86-2797.41,7867.17-2797.43,7867.17-2797.69z M7867.11-2804.21v-3.08l-12.89-5.78l-12.89-5.76l-4.58,0.84
			c-2.53,0.47-4.56,0.91-4.54,0.97c0.06,0.09,34.69,15.89,34.83,15.89C7867.09-2801.12,7867.11-2802.5,7867.11-2804.21z
			 M7867.11-2813.54l-0.06-3.08l-5.63-2.39c-3.08-1.33-5.71-2.4-5.86-2.4c-0.42-0.02-9.12,1.62-9.12,1.72
			c0.02,0.09,20.33,9.19,20.56,9.21C7867.09-2810.48,7867.13-2811.86,7867.11-2813.54z M7838.91-2821.11
			c13.85-2.58,25.19-4.7,25.21-4.73c0.1-0.06-10.06-4.51-10.33-4.51c-0.15,0-9.27,1.95-20.25,4.34l-19.98,4.36v2.62
			c0,1.44,0.04,2.62,0.1,2.62C7813.72-2816.41,7825.08-2818.52,7838.91-2821.11z M7867.11-2823.55c-0.06-0.03-1.49,0.2-3.16,0.52
			c-2.01,0.37-3.01,0.62-2.87,0.73c0.1,0.08,1.51,0.7,3.1,1.37l2.89,1.23l0.06-1.9C7867.15-2822.63,7867.15-2823.52,7867.11-2823.55
			z M7831.69-2828.39c13.41-2.92,17.76-3.92,17.57-4.04c-0.15-0.11-2.03-0.97-4.2-1.92l-3.95-1.75l-12.15,2.84
			c-6.67,1.55-12.89,3-13.77,3.2l-1.63,0.39v2.56c0,1.42,0.06,2.58,0.17,2.58C7813.81-2824.52,7821.88-2826.26,7831.69-2828.39z
			 M7866.97-2833.99c-0.31-0.22-52.97-23-53.14-23c-0.06,0-0.08,1.26-0.06,2.81l0.06,2.81l26.64,11.82l26.64,11.82l0.06-3.04
			C7867.22-2833.08,7867.15-2833.86,7866.97-2833.99z M7890.6-2830.78c3.43-0.33,6.21-1.17,8.89-2.7c2.97-1.69,5.44-4.46,6.42-7.21
			c0.63-1.78,0.63-4.81-0.02-6.56c-1.69-4.71-6.15-8.1-12.51-9.55c-1.61-0.36-2.2-0.41-4.77-0.41c-2.59,0-3.14,0.05-4.81,0.42
			c-6.19,1.4-10.88,4.98-12.47,9.54c-0.63,1.76-0.63,4.81,0,6.56c1.88,5.26,7.91,9.23,15.08,9.9
			C7888.38-2830.6,7888.64-2830.6,7890.6-2830.78z M7825.54-2835.24c6.23-1.45,11.34-2.67,11.34-2.72s-2.34-1.11-5.21-2.37
			l-5.19-2.31l-6.36,1.78l-6.36,1.78l-0.06,3.31c-0.04,2.62,0,3.29,0.21,3.25C7814.06-2832.57,7819.29-2833.79,7825.54-2835.24z
			 M7867.11-2840.13v-3.09l-16.24-7.06l-16.32-6.93l-7.07-0.16h-7.07l23.33,10.22c12.82,5.56,23.35,10.12,23.39,10.12
			C7867.15-2837.02,7867.17-2838.41,7867.11-2840.13z M7818.05-2843.14c2.22-0.61,4.1-1.16,4.18-1.2c0.13-0.08-7.64-3.64-8.45-3.89
			c-0.08-0.03-0.17,1.36-0.17,3.08c0,1.95,0.08,3.14,0.21,3.14C7813.93-2842.02,7815.83-2842.51,7818.05-2843.14z M7867.9-2847.93
			c1.17-3.43,4.12-6.74,8.05-9.01l0.73-0.42h-17.47c-10.31,0-17.34,0.05-17.15,0.14c3.37,1.48,25.23,10.9,25.25,10.86
			C7867.36-2846.37,7867.61-2847.08,7867.9-2847.93z"/>
		<path d="M7885.41-2834.99c-2.22-0.44-3.91-1.17-5.59-2.42c-1.69-1.26-2.66-2.51-3.24-4.23c-1.13-3.25,0.08-6.56,3.22-8.9
			c4.9-3.65,12.72-3.65,17.62,0s4.9,9.49,0,13.11c-0.84,0.62-2.05,1.33-2.78,1.62C7891.88-2834.71,7888.41-2834.41,7885.41-2834.99z
			 M7891.61-2837.71c1.42-0.37,3.14-1.33,4.06-2.22c2.8-2.78,2.3-6.82-1.15-9.05c-5.59-3.59-14.16-0.94-14.73,4.54
			c-0.33,3.23,2.7,6.29,6.84,6.95C7887.86-2837.3,7890.48-2837.41,7891.61-2837.71z"/>
	</g>
</g>
</svg>
